<?xml version="1.0" encoding="UTF-8"?>
<!DOCTYPE svg PUBLIC "-//W3C//DTD SVG 1.1//EN" "http://www.w3.org/Graphics/SVG/1.1/DTD/svg11.dtd">
<svg xmlns="http://www.w3.org/2000/svg" version="1.1" width="200px" height="200px" style="shape-rendering:geometricPrecision; text-rendering:geometricPrecision; image-rendering:optimizeQuality; fill-rule:evenodd; clip-rule:evenodd" xmlns:xlink="http://www.w3.org/1999/xlink">
<g><path style="opacity:1" fill="#99a5b0" d="M 98.5,-0.5 C 99.1667,-0.5 99.8333,-0.5 100.5,-0.5C 100.5,0.166667 100.5,0.833333 100.5,1.5C 99.8333,1.83333 99.1667,2.16667 98.5,2.5C 98.5,1.5 98.5,0.5 98.5,-0.5 Z"/></g>
<g><path style="opacity:1" fill="#0778e2" d="M 100.5,1.5 C 101.304,3.18874 102.304,4.85541 103.5,6.5C 109.406,6.85609 115.072,8.18942 120.5,10.5C 121.262,11.6283 121.929,12.7949 122.5,14C 132.244,14.8057 141.911,14.639 151.5,13.5C 154.172,11.6615 157.172,10.4949 160.5,10C 167.013,9.82793 173.347,9.32793 179.5,8.5C 180.167,8.5 180.5,8.83333 180.5,9.5C 182.102,11.0739 184.102,11.7406 186.5,11.5C 186.168,49.6703 186.501,87.6703 187.5,125.5C 180.195,165.468 156.862,190.135 117.5,199.5C 105.5,199.5 93.5,199.5 81.5,199.5C 78.4651,198.626 75.4651,197.626 72.5,196.5C 54.0751,189.581 38.9084,178.248 27,162.5C 22.8674,155.231 19.034,147.898 15.5,140.5C 13.5575,135.397 12.2241,130.063 11.5,124.5C 12.4985,87.0037 12.8318,49.337 12.5,11.5C 21.2554,10.1324 29.9221,9.13242 38.5,8.5C 41.3704,9.63361 44.3704,10.3003 47.5,10.5C 47.4326,11.9587 47.7659,13.2921 48.5,14.5C 57.9911,15.658 67.6578,15.8246 77.5,15C 78.0611,13.324 79.0611,11.9906 80.5,11C 85.4699,9.1848 90.4699,8.01814 95.5,7.5C 96.6923,5.8869 97.6923,4.22024 98.5,2.5C 99.1667,2.16667 99.8333,1.83333 100.5,1.5 Z M 167.5,139.5 C 156.583,164.078 137.917,179.078 111.5,184.5C 103.601,186.697 95.6005,186.697 87.5,184.5C 59.1691,178.163 39.8358,161.496 29.5,134.5C 27.8702,129.645 26.7035,124.645 26,119.5C 25.1715,89.2615 25.3382,59.0949 26.5,29C 75.1667,28.3333 123.833,28.3333 172.5,29C 173.662,58.7615 173.828,88.5948 173,118.5C 172.252,125.827 170.419,132.827 167.5,139.5 Z"/></g>
<g><path style="opacity:0.914" fill="#2b86dc" d="M 179.5,8.5 C 173.347,9.32793 167.013,9.82793 160.5,10C 157.172,10.4949 154.172,11.6615 151.5,13.5C 151.414,12.5041 151.748,11.6708 152.5,11C 161.337,8.74019 170.337,7.90685 179.5,8.5 Z"/></g>
<g><path style="opacity:0.71" fill="#3490e6" d="M 38.5,8.5 C 29.9221,9.13242 21.2554,10.1324 12.5,11.5C 12.8318,49.337 12.4985,87.0037 11.5,124.5C 11.5,86.5 11.5,48.5 11.5,10.5C 20.3989,8.78552 29.3989,8.11886 38.5,8.5 Z"/></g>
<g><path style="opacity:0.71" fill="#3591e7" d="M 180.5,9.5 C 182.806,9.99255 185.139,10.3259 187.5,10.5C 187.5,48.8333 187.5,87.1667 187.5,125.5C 186.501,87.6703 186.168,49.6703 186.5,11.5C 184.102,11.7406 182.102,11.0739 180.5,9.5 Z"/></g>
<g><path style="opacity:0.914" fill="#2a86dd" d="M 95.5,7.5 C 90.4699,8.01814 85.4699,9.1848 80.5,11C 79.0611,11.9906 78.0611,13.324 77.5,15C 67.6578,15.8246 57.9911,15.658 48.5,14.5C 57.8393,14.6665 67.1726,14.4998 76.5,14C 78.0076,10.5856 80.6743,8.5856 84.5,8C 88.1516,7.50137 91.8183,7.3347 95.5,7.5 Z"/></g>
<g><path style="opacity:1" fill="#0377e2" d="M 82.5,112.5 C 83.3446,113.671 84.0113,115.005 84.5,116.5C 84.5849,119.792 86.2516,122.626 89.5,125C 101.888,130.977 110.888,127.644 116.5,115C 116.43,114.235 116.097,113.735 115.5,113.5C 115.5,112.833 115.833,112.5 116.5,112.5C 117.497,90.673 117.831,68.673 117.5,46.5C 127.5,46.5 137.5,46.5 147.5,46.5C 147.169,70.006 147.502,93.3393 148.5,116.5C 143.096,142.881 126.762,156.215 99.5,156.5C 71.8452,156.167 55.5119,142.5 50.5,115.5C 51.4975,92.6727 51.8308,69.6727 51.5,46.5C 61.5,46.5 71.5,46.5 81.5,46.5C 81.1693,68.673 81.5026,90.673 82.5,112.5 Z"/></g>
<g><path style="opacity:0.914" fill="#2f88dc" d="M 82.5,112.5 C 81.5026,90.673 81.1693,68.673 81.5,46.5C 71.5,46.5 61.5,46.5 51.5,46.5C 51.8308,69.6727 51.4975,92.6727 50.5,115.5C 50.5,92.1667 50.5,68.8333 50.5,45.5C 61.1667,45.5 71.8333,45.5 82.5,45.5C 82.5,67.8333 82.5,90.1667 82.5,112.5 Z"/></g>
<g><path style="opacity:0.914" fill="#2f89dc" d="M 148.5,116.5 C 147.502,93.3393 147.169,70.006 147.5,46.5C 137.5,46.5 127.5,46.5 117.5,46.5C 117.831,68.673 117.497,90.673 116.5,112.5C 116.5,90.1667 116.5,67.8333 116.5,45.5C 127.167,45.5 137.833,45.5 148.5,45.5C 148.5,69.1667 148.5,92.8333 148.5,116.5 Z"/></g>
<g><path style="opacity:0.635" fill="#177cdd" d="M 115.5,113.5 C 116.097,113.735 116.43,114.235 116.5,115C 110.888,127.644 101.888,130.977 89.5,125C 86.2516,122.626 84.5849,119.792 84.5,116.5C 92.9428,129.098 102.443,130.098 113,119.5C 114.122,117.593 114.955,115.593 115.5,113.5 Z"/></g>
<g><path style="opacity:0.635" fill="#177dde" d="M 29.5,134.5 C 39.8358,161.496 59.1691,178.163 87.5,184.5C 82.4804,185.181 77.4804,184.347 72.5,182C 51.1583,172.817 36.4916,157.317 28.5,135.5C 28.6236,134.893 28.9569,134.56 29.5,134.5 Z"/></g>
<g><path style="opacity:0.635" fill="#177cdc" d="M 167.5,139.5 C 168.043,139.56 168.376,139.893 168.5,140.5C 157.751,164.41 139.584,179.41 114,185.5C 112.93,185.472 112.097,185.139 111.5,184.5C 137.917,179.078 156.583,164.078 167.5,139.5 Z"/></g>
<g><path style="opacity:0.965" fill="#147bdc" d="M 15.5,140.5 C 19.034,147.898 22.8674,155.231 27,162.5C 38.9084,178.248 54.0751,189.581 72.5,196.5C 43.5963,187.93 24.5963,169.263 15.5,140.5 Z"/></g>
</svg>
