<?xml version="1.0" encoding="UTF-8"?>
<!DOCTYPE svg PUBLIC "-//W3C//DTD SVG 1.1//EN" "http://www.w3.org/Graphics/SVG/1.1/DTD/svg11.dtd">
<svg xmlns="http://www.w3.org/2000/svg" version="1.1" width="200px" height="200px" style="shape-rendering:geometricPrecision; text-rendering:geometricPrecision; image-rendering:optimizeQuality; fill-rule:evenodd; clip-rule:evenodd" xmlns:xlink="http://www.w3.org/1999/xlink">
<g><path style="opacity:1" fill="#a4acb3" d="M 98.5,-0.5 C 99.1667,-0.5 99.8333,-0.5 100.5,-0.5C 100.5,0.5 100.5,1.5 100.5,2.5C 100.5,3.16667 100.167,3.5 99.5,3.5C 99.1667,3.5 98.8333,3.5 98.5,3.5C 98.5,2.16667 98.5,0.833333 98.5,-0.5 Z"/></g>
<g><path style="opacity:0.981" fill="#fdfdfd" d="M 100.5,2.5 C 101.308,4.22024 102.308,5.8869 103.5,7.5C 108.748,8.00832 113.915,9.34165 119,11.5C 119.765,11.4301 120.265,11.0967 120.5,10.5C 121.338,10.8417 121.672,11.5084 121.5,12.5C 120.596,13.209 120.263,14.209 120.5,15.5C 131.167,15.5 141.833,15.5 152.5,15.5C 152.433,14.0413 152.766,12.7079 153.5,11.5C 155.562,10.2237 157.896,9.39034 160.5,9C 167.014,8.18003 173.347,8.3467 179.5,9.5C 181.32,11.4611 183.32,11.7944 185.5,10.5C 186.117,10.6107 186.617,10.944 187,11.5C 187.831,49.6689 187.664,87.6689 186.5,125.5C 184.831,131.139 183.165,137.472 181.5,144.5C 178.941,148.612 176.608,152.946 174.5,157.5C 174.624,158.107 174.957,158.44 175.5,158.5C 175.5,159.167 175.167,159.5 174.5,159.5C 172.952,159.821 172.285,160.821 172.5,162.5C 172.5,163.167 172.167,163.5 171.5,163.5C 169.952,163.821 169.285,164.821 169.5,166.5C 169.5,167.167 169.167,167.5 168.5,167.5C 166.952,167.821 166.285,168.821 166.5,170.5C 162.793,175.208 158.46,179.208 153.5,182.5C 151.821,182.285 150.821,182.952 150.5,184.5C 148.821,184.285 147.821,184.952 147.5,186.5C 145.821,186.285 144.821,186.952 144.5,188.5C 137.425,191.188 130.425,193.855 123.5,196.5C 118.353,197.396 113.353,198.396 108.5,199.5C 99.8333,199.5 91.1667,199.5 82.5,199.5C 79.4651,198.626 76.4651,197.626 73.5,196.5C 72.0045,194.655 70.3379,194.322 68.5,195.5C 67.8333,195.5 67.5,195.167 67.5,194.5C 66.4617,192.481 65.1284,192.147 63.5,193.5C 61.6316,192.737 59.9649,191.737 58.5,190.5C 58.0269,189.094 57.0269,188.427 55.5,188.5C 54.5084,188.672 53.8417,188.338 53.5,187.5C 53.0269,186.094 52.0269,185.427 50.5,185.5C 49.5084,185.672 48.8417,185.338 48.5,184.5C 48.5,183.167 47.8333,182.5 46.5,182.5C 46.0269,181.094 45.0269,180.427 43.5,180.5C 43.5,179.167 42.8333,178.5 41.5,178.5C 40.5084,178.672 39.8417,178.338 39.5,177.5C 39.5,176.167 38.8333,175.5 37.5,175.5C 37.5,174.167 36.8333,173.5 35.5,173.5C 34.8645,171.205 33.5311,169.539 31.5,168.5C 31.5,167.167 30.8333,166.5 29.5,166.5C 29.9118,164.027 28.9118,162.694 26.5,162.5C 26.7409,159.966 25.7409,158.3 23.5,157.5C 21.3244,151.642 18.9911,145.809 16.5,140C 14.9242,134.176 13.5909,129.01 12.5,124.5C 11.3356,87.0022 11.1689,49.3356 12,11.5C 14.6865,10.287 17.5198,9.62028 20.5,9.5C 27.71,9.6816 34.71,9.6816 41.5,9.5C 42.1667,9.5 42.5,9.83333 42.5,10.5C 45.2589,10.9333 46.5922,12.6 46.5,15.5C 57.1667,15.5 67.8333,15.5 78.5,15.5C 78.5,14.1667 78.5,12.8333 78.5,11.5C 81.3462,11.4484 83.6796,10.4484 85.5,8.5C 89.5138,8.66551 93.5138,8.49885 97.5,8C 98.2666,6.52951 98.9332,5.02951 99.5,3.5C 100.167,3.5 100.5,3.16667 100.5,2.5 Z M 173.5,119.5 C 172.656,122.345 171.99,125.345 171.5,128.5C 169.701,134.563 167.701,140.563 165.5,146.5C 164.11,147.899 163.11,149.566 162.5,151.5C 159.573,155.767 156.24,159.767 152.5,163.5C 151.5,163.833 150.833,164.5 150.5,165.5C 146.157,169.66 141.491,173.327 136.5,176.5C 133.515,177.326 130.849,178.659 128.5,180.5C 125.603,181.129 122.936,182.129 120.5,183.5C 114.9,184.686 109.233,185.353 103.5,185.5C 96.1025,186.1 88.7691,185.434 81.5,183.5C 74.8507,182.008 68.5174,179.675 62.5,176.5C 61.7095,175.599 60.7095,174.932 59.5,174.5C 58.7095,173.599 57.7095,172.932 56.5,172.5C 55.7095,171.599 54.7095,170.932 53.5,170.5C 53.1667,169.5 52.5,168.833 51.5,168.5C 48.9302,166.386 46.5968,164.053 44.5,161.5C 44.1667,160.5 43.5,159.833 42.5,159.5C 42.1667,158.5 41.5,157.833 40.5,157.5C 39.6597,155.147 38.3264,153.147 36.5,151.5C 36.3404,149.847 35.6737,148.514 34.5,147.5C 33.8333,145.833 33.1667,144.167 32.5,142.5C 32.5,141.833 32.1667,141.5 31.5,141.5C 31.1667,140.167 30.8333,138.833 30.5,137.5C 29.0025,133.81 27.6692,130.143 26.5,126.5C 25.5437,93.8511 25.2103,61.1844 25.5,28.5C 74.8333,28.5 124.167,28.5 173.5,28.5C 173.5,58.8333 173.5,89.1667 173.5,119.5 Z"/></g>
<g><path style="opacity:0.71" fill="#c8c8c8" d="M 98.5,3.5 C 98.8333,3.5 99.1667,3.5 99.5,3.5C 98.9332,5.02951 98.2666,6.52951 97.5,8C 93.5138,8.49885 89.5138,8.66551 85.5,8.5C 88.977,7.6773 92.6437,7.1773 96.5,7C 97.0848,5.69762 97.7515,4.53095 98.5,3.5 Z"/></g>
<g><path style="opacity:0.71" fill="#c5c5c5" d="M 20.5,9.5 C 27.358,8.26199 34.358,8.26199 41.5,9.5C 34.71,9.6816 27.71,9.6816 20.5,9.5 Z"/></g>
<g><path style="opacity:0.804" fill="#cdcdcd" d="M 103.5,7.5 C 109.469,6.99425 115.135,7.99425 120.5,10.5C 120.265,11.0967 119.765,11.4301 119,11.5C 113.915,9.34165 108.748,8.00832 103.5,7.5 Z"/></g>
<g><path style="opacity:0.871" fill="#cfcfcf" d="M 85.5,8.5 C 83.6796,10.4484 81.3462,11.4484 78.5,11.5C 80.5093,9.93482 82.8427,8.93482 85.5,8.5 Z"/></g>
<g><path style="opacity:0.71" fill="#cbcbcb" d="M 179.5,9.5 C 181.5,9.83333 183.5,10.1667 185.5,10.5C 183.32,11.7944 181.32,11.4611 179.5,9.5 Z"/></g>
<g><path style="opacity:0.71" fill="#cacaca" d="M 42.5,10.5 C 45.9496,9.75635 47.6162,11.0897 47.5,14.5C 57.5,14.5 67.5,14.5 77.5,14.5C 77.2627,13.209 77.596,12.209 78.5,11.5C 78.5,12.8333 78.5,14.1667 78.5,15.5C 67.8333,15.5 57.1667,15.5 46.5,15.5C 46.5922,12.6 45.2589,10.9333 42.5,10.5 Z"/></g>
<g><path style="opacity:0.71" fill="#c9c9c9" d="M 153.5,11.5 C 152.766,12.7079 152.433,14.0413 152.5,15.5C 141.833,15.5 131.167,15.5 120.5,15.5C 120.263,14.209 120.596,13.209 121.5,12.5C 131.111,14.4743 141.111,15.141 151.5,14.5C 151.285,12.8212 151.952,11.8212 153.5,11.5 Z"/></g>
<g><path style="opacity:0.71" fill="#c9c9c9" d="M 173.5,119.5 C 173.5,89.1667 173.5,58.8333 173.5,28.5C 124.167,28.5 74.8333,28.5 25.5,28.5C 25.2103,61.1844 25.5437,93.8511 26.5,126.5C 25.6981,125.048 25.1981,123.382 25,121.5C 24.5,90.1684 24.3334,58.8351 24.5,27.5C 74.5,27.5 124.5,27.5 174.5,27.5C 174.833,58.907 174.499,89.5737 173.5,119.5 Z"/></g>
<g><path style="opacity:0.999" fill="#fefefe" d="M 84.5,118.5 C 84.6696,121.204 86.0029,122.871 88.5,123.5C 90.4134,126.799 93.0801,127.799 96.5,126.5C 98.8333,127.833 101.167,127.833 103.5,126.5C 105.128,127.853 106.462,127.519 107.5,125.5C 111.5,124.833 113.833,122.5 114.5,118.5C 115.966,117.653 116.8,116.32 117,114.5C 117.5,91.8358 117.667,69.1691 117.5,46.5C 127.5,46.5 137.5,46.5 147.5,46.5C 147.169,69.3395 147.503,92.0061 148.5,114.5C 148.672,115.492 148.338,116.158 147.5,116.5C 146.204,121.378 144.204,126.711 141.5,132.5C 141.624,133.107 141.957,133.44 142.5,133.5C 142.5,134.167 142.167,134.5 141.5,134.5C 139.952,134.821 139.285,135.821 139.5,137.5C 139.5,138.167 139.167,138.5 138.5,138.5C 136.952,138.821 136.285,139.821 136.5,141.5C 135.833,142.833 134.833,143.833 133.5,144.5C 131.821,144.285 130.821,144.952 130.5,146.5C 130.5,147.167 130.167,147.5 129.5,147.5C 120.927,151.59 112.593,154.257 104.5,155.5C 101.167,156.833 97.8333,156.833 94.5,155.5C 91.0161,154.632 86.8495,153.632 82,152.5C 81.2352,152.57 80.7352,152.903 80.5,153.5C 77.9684,152.404 75.6351,151.071 73.5,149.5C 73.0269,148.094 72.0269,147.427 70.5,147.5C 70.0269,146.094 69.0269,145.427 67.5,145.5C 67.5,144.167 66.8333,143.5 65.5,143.5C 65.5,142.167 64.8333,141.5 63.5,141.5C 63.5,140.167 62.8333,139.5 61.5,139.5C 60.544,136.561 58.8774,134.228 56.5,132.5C 55.5987,131.71 54.9321,130.71 54.5,129.5C 55.0967,129.265 55.4301,128.765 55.5,128C 53.7185,123.656 52.5518,119.156 52,114.5C 51.5,91.8358 51.3334,69.1691 51.5,46.5C 61.5,46.5 71.5,46.5 81.5,46.5C 81.3334,69.1691 81.5,91.8358 82,114.5C 82.2004,116.32 83.0337,117.653 84.5,118.5 Z"/></g>
<g><path style="opacity:0.71" fill="#c7c7c7" d="M 84.5,118.5 C 83.0337,117.653 82.2004,116.32 82,114.5C 81.5,91.8358 81.3334,69.1691 81.5,46.5C 71.5,46.5 61.5,46.5 51.5,46.5C 51.3334,69.1691 51.5,91.8358 52,114.5C 52.5518,119.156 53.7185,123.656 55.5,128C 55.4301,128.765 55.0967,129.265 54.5,129.5C 52.8269,124.977 51.6602,120.31 51,115.5C 50.5,92.169 50.3334,68.8357 50.5,45.5C 61.1667,45.5 71.8333,45.5 82.5,45.5C 82.3334,68.1691 82.5,90.8358 83,113.5C 83.6077,115.154 84.1077,116.821 84.5,118.5 Z"/></g>
<g><path style="opacity:0.71" fill="#c8c8c8" d="M 148.5,114.5 C 147.503,92.0061 147.169,69.3395 147.5,46.5C 137.5,46.5 127.5,46.5 117.5,46.5C 117.667,69.1691 117.5,91.8358 117,114.5C 116.8,116.32 115.966,117.653 114.5,118.5C 114.892,116.821 115.392,115.154 116,113.5C 116.5,90.8358 116.667,68.1691 116.5,45.5C 127.167,45.5 137.833,45.5 148.5,45.5C 148.5,68.5 148.5,91.5 148.5,114.5 Z"/></g>
<g><path style="opacity:0.467" fill="#d3d3d3" d="M 84.5,118.5 C 86.0627,119.945 87.396,121.611 88.5,123.5C 86.0029,122.871 84.6696,121.204 84.5,118.5 Z"/></g>
<g><path style="opacity:0.71" fill="#d9d9d9" d="M 147.5,116.5 C 147.226,122.599 145.559,128.266 142.5,133.5C 141.957,133.44 141.624,133.107 141.5,132.5C 144.204,126.711 146.204,121.378 147.5,116.5 Z"/></g>
<g><path style="opacity:0.871" fill="#c5c5c5" d="M 114.5,118.5 C 113.833,122.5 111.5,124.833 107.5,125.5C 110.167,123.5 112.5,121.167 114.5,118.5 Z"/></g>
<g><path style="opacity:0.71" fill="#cacaca" d="M 88.5,123.5 C 90.9535,125.06 93.6202,126.06 96.5,126.5C 93.0801,127.799 90.4134,126.799 88.5,123.5 Z"/></g>
<g><path style="opacity:0.71" fill="#c8c8c8" d="M 107.5,125.5 C 106.462,127.519 105.128,127.853 103.5,126.5C 104.833,126.167 106.167,125.833 107.5,125.5 Z"/></g>
<g><path style="opacity:0.71" fill="#d8d8d8" d="M 186.5,125.5 C 186.064,132.578 184.397,139.244 181.5,145.5C 181.5,145.167 181.5,144.833 181.5,144.5C 183.165,137.472 184.831,131.139 186.5,125.5 Z"/></g>
<g><path style="opacity:0.467" fill="#d1d1d1" d="M 56.5,132.5 C 58.8774,134.228 60.544,136.561 61.5,139.5C 59.1099,137.733 57.4432,135.4 56.5,132.5 Z"/></g>
<g><path style="opacity:0.71" fill="#b8b8b8" d="M 141.5,134.5 C 141.068,135.71 140.401,136.71 139.5,137.5C 139.285,135.821 139.952,134.821 141.5,134.5 Z"/></g>
<g><path style="opacity:0.871" fill="#bababa" d="M 61.5,139.5 C 62.8333,139.5 63.5,140.167 63.5,141.5C 62.5,141.167 61.8333,140.5 61.5,139.5 Z"/></g>
<g><path style="opacity:0.71" fill="#b8b8b8" d="M 138.5,138.5 C 138.068,139.71 137.401,140.71 136.5,141.5C 136.285,139.821 136.952,138.821 138.5,138.5 Z"/></g>
<g><path style="opacity:0.71" fill="#c2c2c2" d="M 30.5,137.5 C 30.8333,138.833 31.1667,140.167 31.5,141.5C 29.4805,140.462 29.1472,139.128 30.5,137.5 Z"/></g>
<g><path style="opacity:0.635" fill="#dadada" d="M 171.5,128.5 C 172.097,128.735 172.43,129.235 172.5,130C 171.013,135.992 168.68,141.492 165.5,146.5C 167.701,140.563 169.701,134.563 171.5,128.5 Z"/></g>
<g><path style="opacity:0.871" fill="#bababa" d="M 63.5,141.5 C 64.8333,141.5 65.5,142.167 65.5,143.5C 64.5,143.167 63.8333,142.5 63.5,141.5 Z"/></g>
<g><path style="opacity:0.871" fill="#bababa" d="M 65.5,143.5 C 66.8333,143.5 67.5,144.167 67.5,145.5C 66.5,145.167 65.8333,144.5 65.5,143.5 Z"/></g>
<g><path style="opacity:0.71" fill="#b8b8b8" d="M 133.5,144.5 C 132.71,145.401 131.71,146.068 130.5,146.5C 130.821,144.952 131.821,144.285 133.5,144.5 Z"/></g>
<g><path style="opacity:0.871" fill="#bdbdbd" d="M 67.5,145.5 C 69.0269,145.427 70.0269,146.094 70.5,147.5C 68.9731,147.573 67.9731,146.906 67.5,145.5 Z"/></g>
<g><path style="opacity:0.871" fill="#d4d4d4" d="M 32.5,142.5 C 33.1667,144.167 33.8333,145.833 34.5,147.5C 34.19,148.738 33.69,148.738 33,147.5C 32.5983,146.128 32.0983,144.795 31.5,143.5C 31.6236,142.893 31.9569,142.56 32.5,142.5 Z"/></g>
<g><path style="opacity:0.871" fill="#bdbdbd" d="M 70.5,147.5 C 72.0269,147.427 73.0269,148.094 73.5,149.5C 71.9731,149.573 70.9731,148.906 70.5,147.5 Z"/></g>
<g><path style="opacity:0.871" fill="#c4c4c4" d="M 165.5,146.5 C 165.727,148.933 164.727,150.599 162.5,151.5C 163.11,149.566 164.11,147.899 165.5,146.5 Z"/></g>
<g><path style="opacity:0.71" fill="#c2c2c2" d="M 129.5,147.5 C 122.135,152.954 113.802,155.621 104.5,155.5C 112.593,154.257 120.927,151.59 129.5,147.5 Z"/></g>
<g><path style="opacity:0.71" fill="#c3c3c3" d="M 23.5,157.5 C 16.8565,147.569 13.1898,136.569 12.5,124.5C 13.5909,129.01 14.9242,134.176 16.5,140C 18.9911,145.809 21.3244,151.642 23.5,157.5 Z"/></g>
<g><path style="opacity:0.71" fill="#c4c4c4" d="M 181.5,144.5 C 181.5,144.833 181.5,145.167 181.5,145.5C 179.771,149.958 177.771,154.291 175.5,158.5C 174.957,158.44 174.624,158.107 174.5,157.5C 176.608,152.946 178.941,148.612 181.5,144.5 Z"/></g>
<g><path style="opacity:0.467" fill="#d8d8d8" d="M 80.5,153.5 C 80.7352,152.903 81.2352,152.57 82,152.5C 86.8495,153.632 91.0161,154.632 94.5,155.5C 89.7001,155.65 85.0334,154.984 80.5,153.5 Z"/></g>
<g><path style="opacity:0.871" fill="#c8c8c8" d="M 36.5,151.5 C 38.3264,153.147 39.6597,155.147 40.5,157.5C 38.1782,156.198 36.8449,154.198 36.5,151.5 Z"/></g>
<g><path style="opacity:0.871" fill="#bebebe" d="M 23.5,157.5 C 25.7409,158.3 26.7409,159.966 26.5,162.5C 25.2632,161.035 24.2632,159.368 23.5,157.5 Z"/></g>
<g><path style="opacity:0.871" fill="#bababa" d="M 40.5,157.5 C 41.5,157.833 42.1667,158.5 42.5,159.5C 41.1667,159.5 40.5,158.833 40.5,157.5 Z"/></g>
<g><path style="opacity:0.871" fill="#c9c9c9" d="M 162.5,151.5 C 160.638,157.315 157.304,161.315 152.5,163.5C 156.24,159.767 159.573,155.767 162.5,151.5 Z"/></g>
<g><path style="opacity:0.871" fill="#bababa" d="M 42.5,159.5 C 43.5,159.833 44.1667,160.5 44.5,161.5C 43.1667,161.5 42.5,160.833 42.5,159.5 Z"/></g>
<g><path style="opacity:0.71" fill="#b8b8b8" d="M 174.5,159.5 C 174.068,160.71 173.401,161.71 172.5,162.5C 172.285,160.821 172.952,159.821 174.5,159.5 Z"/></g>
<g><path style="opacity:0.467" fill="#d5d5d5" d="M 44.5,161.5 C 46.5968,164.053 48.9302,166.386 51.5,168.5C 47.596,167.719 45.2627,165.385 44.5,161.5 Z"/></g>
<g><path style="opacity:0.71" fill="#bfbfbf" d="M 26.5,162.5 C 28.9118,162.694 29.9118,164.027 29.5,166.5C 28.5116,165.205 27.5116,163.872 26.5,162.5 Z"/></g>
<g><path style="opacity:0.71" fill="#b8b8b8" d="M 171.5,163.5 C 171.068,164.71 170.401,165.71 169.5,166.5C 169.285,164.821 169.952,163.821 171.5,163.5 Z"/></g>
<g><path style="opacity:0.871" fill="#bababa" d="M 29.5,166.5 C 30.8333,166.5 31.5,167.167 31.5,168.5C 30.5,168.167 29.8333,167.5 29.5,166.5 Z"/></g>
<g><path style="opacity:0.871" fill="#c6c6c6" d="M 150.5,165.5 C 147.782,170.95 143.115,174.617 136.5,176.5C 141.491,173.327 146.157,169.66 150.5,165.5 Z"/></g>
<g><path style="opacity:0.71" fill="#b8b8b8" d="M 168.5,167.5 C 168.068,168.71 167.401,169.71 166.5,170.5C 166.285,168.821 166.952,167.821 168.5,167.5 Z"/></g>
<g><path style="opacity:0.871" fill="#bababa" d="M 51.5,168.5 C 52.5,168.833 53.1667,169.5 53.5,170.5C 52.1667,170.5 51.5,169.833 51.5,168.5 Z"/></g>
<g><path style="opacity:0.804" fill="#d4d4d4" d="M 31.5,168.5 C 33.5311,169.539 34.8645,171.205 35.5,173.5C 33.457,172.421 32.1237,170.754 31.5,168.5 Z"/></g>
<g><path style="opacity:0.871" fill="#bdbdbd" d="M 53.5,170.5 C 54.7095,170.932 55.7095,171.599 56.5,172.5C 54.8212,172.715 53.8212,172.048 53.5,170.5 Z"/></g>
<g><path style="opacity:0.871" fill="#bababa" d="M 35.5,173.5 C 36.8333,173.5 37.5,174.167 37.5,175.5C 36.5,175.167 35.8333,174.5 35.5,173.5 Z"/></g>
<g><path style="opacity:0.871" fill="#bdbdbd" d="M 56.5,172.5 C 57.7095,172.932 58.7095,173.599 59.5,174.5C 57.8212,174.715 56.8212,174.048 56.5,172.5 Z"/></g>
<g><path style="opacity:0.871" fill="#bababa" d="M 37.5,175.5 C 38.8333,175.5 39.5,176.167 39.5,177.5C 38.5,177.167 37.8333,176.5 37.5,175.5 Z"/></g>
<g><path style="opacity:0.871" fill="#bdbdbd" d="M 59.5,174.5 C 60.7095,174.932 61.7095,175.599 62.5,176.5C 62.1667,176.5 61.8333,176.5 61.5,176.5C 60.1667,176.5 59.5,175.833 59.5,174.5 Z"/></g>
<g><path style="opacity:0.871" fill="#bababa" d="M 41.5,178.5 C 42.8333,178.5 43.5,179.167 43.5,180.5C 42.5,180.167 41.8333,179.5 41.5,178.5 Z"/></g>
<g><path style="opacity:0.635" fill="#d3d3d3" d="M 61.5,176.5 C 61.8333,176.5 62.1667,176.5 62.5,176.5C 68.5174,179.675 74.8507,182.008 81.5,183.5C 74.2147,183.552 67.548,181.218 61.5,176.5 Z"/></g>
<g><path style="opacity:0.635" fill="#d9d9d9" d="M 136.5,176.5 C 134.421,178.873 131.754,180.206 128.5,180.5C 130.849,178.659 133.515,177.326 136.5,176.5 Z"/></g>
<g><path style="opacity:0.871" fill="#bdbdbd" d="M 43.5,180.5 C 45.0269,180.427 46.0269,181.094 46.5,182.5C 44.9731,182.573 43.9731,181.906 43.5,180.5 Z"/></g>
<g><path style="opacity:0.871" fill="#bababa" d="M 46.5,182.5 C 47.8333,182.5 48.5,183.167 48.5,184.5C 47.5,184.167 46.8333,183.5 46.5,182.5 Z"/></g>
<g><path style="opacity:0.71" fill="#b8b8b8" d="M 153.5,182.5 C 152.71,183.401 151.71,184.068 150.5,184.5C 150.821,182.952 151.821,182.285 153.5,182.5 Z"/></g>
<g><path style="opacity:0.71" fill="#b8b8b8" d="M 150.5,184.5 C 149.71,185.401 148.71,186.068 147.5,186.5C 147.821,184.952 148.821,184.285 150.5,184.5 Z"/></g>
<g><path style="opacity:0.871" fill="#bdbdbd" d="M 50.5,185.5 C 52.0269,185.427 53.0269,186.094 53.5,187.5C 51.9731,187.573 50.9731,186.906 50.5,185.5 Z"/></g>
<g><path style="opacity:0.71" fill="#cccccc" d="M 120.5,183.5 C 115.022,186.219 109.356,186.886 103.5,185.5C 109.233,185.353 114.9,184.686 120.5,183.5 Z"/></g>
<g><path style="opacity:0.71" fill="#b8b8b8" d="M 147.5,186.5 C 146.71,187.401 145.71,188.068 144.5,188.5C 144.821,186.952 145.821,186.285 147.5,186.5 Z"/></g>
<g><path style="opacity:0.871" fill="#bdbdbd" d="M 55.5,188.5 C 57.0269,188.427 58.0269,189.094 58.5,190.5C 56.9731,190.573 55.9731,189.906 55.5,188.5 Z"/></g>
<g><path style="opacity:0.71" fill="#c0c0c0" d="M 144.5,188.5 C 137.971,192.459 130.971,195.459 123.5,197.5C 123.5,197.167 123.5,196.833 123.5,196.5C 130.425,193.855 137.425,191.188 144.5,188.5 Z"/></g>
<g><path style="opacity:0.71" fill="#c2c2c2" d="M 63.5,193.5 C 65.1284,192.147 66.4617,192.481 67.5,194.5C 66.1667,194.167 64.8333,193.833 63.5,193.5 Z"/></g>
<g><path style="opacity:0.71" fill="#c3c3c3" d="M 68.5,195.5 C 70.3379,194.322 72.0045,194.655 73.5,196.5C 71.7839,196.371 70.1172,196.038 68.5,195.5 Z"/></g>
<g><path style="opacity:0.71" fill="#d5d5d5" d="M 123.5,196.5 C 123.5,196.833 123.5,197.167 123.5,197.5C 120.99,197.927 118.657,198.593 116.5,199.5C 113.833,199.5 111.167,199.5 108.5,199.5C 113.353,198.396 118.353,197.396 123.5,196.5 Z"/></g>
</svg>
